<svg width="24" height="25" viewBox="0 0 24 25" fill="none" xmlns="http://www.w3.org/2000/svg">
<g clip-path="url(#clip0_1_3547)">
<path d="M21.2782 0.450195H5.04139C3.36439 0.450195 2 1.7792 2 3.4127V21.4877C2 23.1212 3.36434 24.4502 5.04134 24.4502H21.2781C21.6768 24.4502 22 24.1353 22 23.7471V19.2283V1.15332C22 0.765008 21.6769 0.450195 21.2782 0.450195ZM7.36094 4.9689H16.6392C17.0378 4.9689 17.361 5.28371 17.361 5.67202C17.361 6.06034 17.0378 6.37515 16.6392 6.37515H7.36094C6.96228 6.37515 6.63909 6.06034 6.63909 5.67202C6.63909 5.28371 6.96223 4.9689 7.36094 4.9689ZM5.04144 23.0439C4.16045 23.0439 3.44375 22.3458 3.44375 21.4877C3.44375 21.4609 3.44447 21.4342 3.44582 21.4078C3.48869 20.5866 4.18802 19.9314 5.04139 19.9314H20.5563V23.0439H5.04144Z" />
</g>
<defs>
<clipPath id="clip0_1_3547">
<rect width="24" height="24" fill="white" transform="translate(0 0.450195)"/>
</clipPath>
</defs>
</svg>
