<svg width="24" height="25" viewBox="0 0 24 25" fill="none" xmlns="http://www.w3.org/2000/svg">
<g clip-path="url(#clip0_1_4292)">
<path d="M23.3529 10.9388C23.3524 10.9383 23.3518 10.9377 23.3513 10.9372L13.5612 1.14746C13.1439 0.72998 12.5891 0.5 11.9989 0.5C11.4088 0.5 10.854 0.729797 10.4365 1.14728L0.651514 10.9321C0.648218 10.9354 0.644922 10.9388 0.641626 10.9421C-0.215307 11.804 -0.213842 13.2024 0.645837 14.0621C1.0386 14.455 1.55734 14.6826 2.11196 14.7064C2.13448 14.7086 2.15719 14.7097 2.18008 14.7097H2.57028V21.9144C2.57028 23.34 3.73025 24.5 5.15627 24.5H8.98647C9.37465 24.5 9.6896 24.1852 9.6896 23.7969V18.1484C9.6896 17.4979 10.2188 16.9687 10.8693 16.9687H13.1285C13.7791 16.9687 14.3082 17.4979 14.3082 18.1484V23.7969C14.3082 24.1852 14.623 24.5 15.0114 24.5H18.8416C20.2676 24.5 21.4276 23.34 21.4276 21.9144V14.7097H21.7894C22.3794 14.7097 22.9342 14.4799 23.3518 14.0624C24.2124 13.2013 24.2128 11.8005 23.3529 10.9388Z" />
</g>
<defs>
<clipPath id="clip0_1_4292">
<rect width="24" height="24" fill="white" transform="translate(0 0.5)"/>
</clipPath>
</defs>
</svg>
