<svg width="237" height="244" viewBox="0 0 237 244" fill="none" xmlns="http://www.w3.org/2000/svg">
<g clip-path="url(#clip0_1_10486)">
<path d="M237.26 116.332L136 116.332L136 58L237.26 58L237.26 116.332ZM136.618 115.717L236.642 115.717L236.642 58.6152L136.618 58.6152L136.618 115.717Z" fill="#E0E0E0"/>
<path d="M216.367 89.0889L149.547 89.0889L149.547 91.0392L216.367 91.0392L216.367 89.0889Z" fill="#F0F0F0"/>
<path d="M220.971 96.3672L149.547 96.3672L149.547 98.496L220.971 98.496L220.971 96.3672Z" fill="#F0F0F0"/>
<path d="M220.971 103.726L149.547 103.726L149.547 105.854L220.971 105.854L220.971 103.726Z" fill="#F0F0F0"/>
<path d="M199.639 135.786L176.286 135.786L176.286 140.85L199.639 140.85L199.639 135.786Z" fill="#F0F0F0"/>
<path d="M236.95 58.2891L136.309 58.2891L136.309 67.5794L236.95 67.5794L236.95 58.2891Z" fill="#E0E0E0"/>
<path d="M229.226 66.1885C229.097 66.0655 230.394 64.5089 232.118 62.7062C233.843 60.9035 235.357 59.5499 235.48 59.673C235.604 59.796 234.312 61.3526 232.588 63.1553C230.864 64.958 229.338 66.3116 229.226 66.1885Z" fill="white"/>
<path d="M235.462 66.1885C235.338 66.3116 233.83 64.958 232.106 63.1553C230.382 61.3526 229.078 59.796 229.208 59.673C229.338 59.5499 230.839 60.9035 232.57 62.7062C234.3 64.5089 235.591 66.0655 235.462 66.1885Z" fill="white"/>
<path d="M118.797 30.8115L51.9769 30.8115L51.9769 32.7619L118.797 32.7619L118.797 30.8115Z" fill="#F0F0F0"/>
<path d="M123.407 38.0781L51.9833 38.0781L51.9833 40.2069L123.407 40.2069L123.407 38.0781Z" fill="#F0F0F0"/>
<path d="M123.407 45.4424L51.9833 45.4424L51.9833 47.5711L123.407 47.5711L123.407 45.4424Z" fill="#F0F0F0"/>
<path d="M75.3361 20.248L51.9833 20.248L51.9833 25.3116L75.3361 25.3116L75.3361 20.248Z" fill="#F0F0F0"/>
<path d="M139.375 8.79836e-06L38.7339 0L38.7339 9.29034L139.375 9.29035L139.375 8.79836e-06Z" fill="#E0E0E0"/>
<path d="M131.293 7.85652C131.163 7.73347 132.461 6.17689 134.185 4.38036C135.909 2.58383 137.423 1.22413 137.546 1.34718C137.67 1.47023 136.378 3.02681 134.654 4.82334C132.93 6.61987 131.422 7.97957 131.293 7.85652Z" fill="white"/>
<path d="M137.546 7.85649C137.423 7.97954 135.915 6.62601 134.185 4.82334C132.454 3.02067 131.163 1.46411 131.293 1.34721C131.422 1.23032 132.924 2.5777 134.654 4.38036C136.385 6.18303 137.676 7.73344 137.546 7.85649Z" fill="white"/>
<path d="M84.9761 87.292L13.5519 87.292L13.5519 89.4208L84.9761 89.4208L84.9761 87.292Z" fill="#F0F0F0"/>
<path d="M84.9761 94.6563L13.5519 94.6562L13.5519 96.785L84.9761 96.785L84.9761 94.6563Z" fill="#F0F0F0"/>
<path d="M218.122 120.633L99.2881 120.633L99.2881 226.555L218.122 226.555L218.122 120.633Z" fill="#E6E6E6"/>
<path d="M105.264 87.2676L12.1741 87.2676L12.1741 183.561L105.264 183.561L105.264 87.2676Z" fill="#F0F0F0"/>
<path d="M105.264 87.2676L12.1741 87.2676L12.1741 97.7576L105.264 97.7576L105.264 87.2676Z" fill="#E0E0E0"/>
<path d="M19.8612 92.4046C19.8443 92.785 19.7155 93.1521 19.4909 93.4603C19.2663 93.7685 18.9557 94.0042 18.5977 94.1383C18.2397 94.2723 17.8501 94.2987 17.4772 94.2143C17.1042 94.1298 16.7644 93.9382 16.4999 93.6631C16.2354 93.3881 16.0578 93.0418 15.9892 92.6672C15.9206 92.2926 15.964 91.9062 16.114 91.5559C16.264 91.2057 16.5141 90.907 16.833 90.6969C17.152 90.4869 17.526 90.3747 17.9084 90.3743C18.1706 90.3799 18.429 90.4369 18.6691 90.5419C18.9091 90.647 19.126 90.7981 19.3073 90.9867C19.4887 91.1752 19.6309 91.3975 19.726 91.6408C19.821 91.8841 19.867 92.1437 19.8612 92.4046Z" fill="white"/>
<path d="M27.7903 92.4046C27.7734 92.785 27.6446 93.1521 27.42 93.4603C27.1954 93.7685 26.8848 94.0042 26.5268 94.1383C26.1689 94.2723 25.7792 94.2987 25.4063 94.2143C25.0334 94.1298 24.6936 93.9382 24.4291 93.6631C24.1646 93.3881 23.987 93.0418 23.9184 92.6672C23.8498 92.2926 23.8932 91.9062 24.0432 91.5559C24.1932 91.2057 24.4432 90.907 24.7622 90.6969C25.0812 90.4869 25.4551 90.3747 25.8375 90.3743C26.3664 90.3872 26.8687 90.608 27.2346 90.9884C27.6004 91.3689 27.8003 91.878 27.7903 92.4046Z" fill="white"/>
<path d="M35.7186 92.405C35.7029 92.7872 35.5746 93.1564 35.3497 93.4666C35.1248 93.7767 34.8133 94.0142 34.4539 94.1494C34.0945 94.2847 33.7031 94.3117 33.3284 94.2272C32.9537 94.1426 32.6122 93.9502 32.3465 93.6739C32.0807 93.3976 31.9025 93.0497 31.8339 92.6733C31.7653 92.2969 31.8094 91.9087 31.9606 91.5571C32.1119 91.2055 32.3637 90.9059 32.6847 90.6957C33.0057 90.4854 33.3817 90.3738 33.7659 90.3747C34.2948 90.3876 34.797 90.6084 35.1629 90.9888C35.5288 91.3692 35.7286 91.8784 35.7186 92.405Z" fill="white"/>
<path d="M141.996 27.8283C141.974 28.3305 141.805 28.8152 141.509 29.2223C141.212 29.6294 140.803 29.9409 140.33 30.1182C139.858 30.2956 139.344 30.3308 138.851 30.2197C138.359 30.1085 137.91 29.8559 137.561 29.493C137.212 29.1302 136.977 28.6732 136.886 28.1788C136.796 27.6844 136.853 27.1743 137.051 26.7119C137.249 26.2495 137.578 25.8552 138 25.5778C138.421 25.3005 138.914 25.1524 139.419 25.152C140.117 25.1681 140.78 25.4588 141.262 25.9604C141.745 26.462 142.009 27.1336 141.996 27.8283Z" fill="white"/>
<path d="M151.679 26.0136C152.022 26.3834 152.249 26.8456 152.33 27.3426C152.411 27.8396 152.344 28.3494 152.136 28.8085C151.928 29.2676 151.589 29.6557 151.162 29.9244C150.734 30.1932 150.236 30.3306 149.731 30.3197C149.225 30.3088 148.734 30.15 148.318 29.8631C147.902 29.5762 147.581 29.1738 147.393 28.7062C147.206 28.2386 147.16 27.7263 147.263 27.2333C147.366 26.7403 147.612 26.2883 147.971 25.9336C148.475 25.4571 149.147 25.1982 149.842 25.2132C150.536 25.2282 151.197 25.5158 151.679 26.0136Z" fill="white"/>
<path d="M162.87 27.8284C162.848 28.3305 162.679 28.8152 162.383 29.2223C162.087 29.6294 161.677 29.9409 161.205 30.1182C160.732 30.2956 160.218 30.3308 159.726 30.2197C159.234 30.1085 158.785 29.8559 158.436 29.493C158.086 29.1302 157.852 28.6732 157.761 28.1788C157.67 27.6844 157.727 27.1743 157.925 26.7119C158.123 26.2496 158.453 25.8552 158.874 25.5779C159.295 25.3006 159.789 25.1525 160.293 25.152C160.991 25.1682 161.654 25.4588 162.137 25.9604C162.62 26.462 162.884 27.1337 162.87 27.8284Z" fill="white"/>
<path d="M225.037 243.606C225.037 243.692 182.126 243.766 129.21 243.766C76.2937 243.766 33.3637 243.692 33.3637 243.606C33.3637 243.52 76.2689 243.446 129.21 243.446C182.151 243.446 225.037 243.52 225.037 243.606Z" fill="#263238"/>
<path d="M183.226 182.521C173.679 175.882 171.516 163.553 171.893 152.478C171.954 150.632 171.75 148.676 172.634 147.051C173.518 145.427 175.582 144.32 177.244 145.101C178.622 145.747 179.222 147.347 179.994 148.67C181.026 150.43 182.536 151.865 184.351 152.81C185.537 153.425 186.996 153.795 188.164 153.155C189.77 152.275 189.956 150.078 189.943 148.233C189.943 144.804 189.923 141.377 189.882 137.952C189.778 136.111 189.975 134.267 190.462 132.488C191.037 130.741 192.316 129.123 194.065 128.631C195.814 128.139 197.995 129.148 198.391 130.95C198.459 131.711 198.478 132.476 198.446 133.239C198.496 134.002 198.854 134.851 199.584 135.085C200.313 135.319 201.06 134.777 201.61 134.242C203.514 132.396 204.811 129.99 206.023 127.616C207.234 125.241 208.402 122.798 210.132 120.774C211.862 118.75 214.254 117.144 216.93 116.99C219.606 116.836 222.393 118.467 223.06 121.057C223.727 123.647 222.213 126.281 220.588 128.379C218.137 131.492 215.246 134.236 212.005 136.524C211.374 136.874 210.871 137.412 210.565 138.063C210.163 139.293 211.331 140.524 212.548 140.911C213.926 141.367 215.422 141.225 216.874 141.397C218.326 141.57 219.871 142.197 220.421 143.551C221.175 145.433 219.599 147.402 218.042 148.694C214.891 151.271 211.313 153.282 207.469 154.637C206.109 155.136 204.682 155.573 203.582 156.52C202.482 157.468 201.827 159.123 202.488 160.421C203.149 161.719 204.849 162.131 206.276 161.867C207.704 161.602 208.97 160.833 210.33 160.329C212.87 159.375 216.145 159.547 217.745 161.731C218.242 162.484 218.556 163.34 218.663 164.234C218.77 165.127 218.668 166.034 218.363 166.881C217.745 168.566 216.793 170.11 215.564 171.422C211.54 176.235 206.305 179.897 200.393 182.035C194.504 184.071 189.047 184.619 183.195 182.49" fill="#58968B"/>
<path d="M220.316 118.504C220.261 118.566 220.201 118.623 220.137 118.676L219.587 119.162C219.105 119.586 218.394 120.214 217.498 121.051C214.958 123.397 212.598 125.931 210.441 128.631C209.063 130.341 207.636 132.267 206.115 134.371C204.595 136.475 203.026 138.727 201.468 141.139C199.808 143.675 198.288 146.3 196.914 149.002C196.203 150.404 195.567 151.881 194.918 153.376L192.959 157.941C190.432 163.714 188.232 169.624 186.371 175.642C184.871 180.566 183.836 185.618 183.282 190.734C182.922 194.184 182.864 197.659 183.109 201.12C183.207 202.35 183.3 203.298 183.387 203.937C183.424 204.245 183.448 204.491 183.473 204.67C183.481 204.754 183.481 204.838 183.473 204.922C183.447 204.842 183.428 204.759 183.418 204.676C183.387 204.497 183.35 204.251 183.3 203.95C183.189 203.335 183.078 202.362 182.96 201.132C182.662 197.663 182.683 194.175 183.022 190.71C183.561 185.572 184.591 180.498 186.1 175.556C187.946 169.521 190.139 163.596 192.668 157.812L194.634 153.247C195.252 151.752 195.925 150.269 196.642 148.854C198.025 146.144 199.558 143.513 201.233 140.973C202.815 138.512 204.41 136.284 205.911 134.205C207.413 132.125 208.865 130.181 210.237 128.483C212.421 125.786 214.818 123.268 217.406 120.952C218.32 120.134 219.049 119.519 219.544 119.106L220.118 118.645C220.18 118.592 220.246 118.545 220.316 118.504Z" fill="#263238"/>
<path d="M196.734 148.86C196.652 148.606 196.592 148.344 196.555 148.079C196.463 147.568 196.345 146.848 196.215 145.913C195.95 144.068 195.678 141.539 195.387 138.739C195.097 135.94 194.769 133.399 194.497 131.578C194.355 130.667 194.232 129.929 194.145 129.425C194.078 129.163 194.042 128.895 194.04 128.625C194.147 128.871 194.226 129.129 194.275 129.394C194.405 129.898 194.559 130.624 194.732 131.541C195.084 133.356 195.431 135.891 195.727 138.703C196.024 141.514 196.259 143.969 196.45 145.883C196.543 146.744 196.623 147.476 196.685 148.054C196.733 148.32 196.75 148.591 196.734 148.86Z" fill="#263238"/>
<path d="M220.489 144.443C220.178 144.51 219.862 144.547 219.544 144.554C218.926 144.609 218.048 144.683 216.967 144.806C214.792 145.04 211.795 145.471 208.513 146.086C205.232 146.701 202.284 147.396 200.171 147.932C199.108 148.202 198.255 148.448 197.662 148.608C197.361 148.714 197.05 148.79 196.735 148.836C197.019 148.69 197.317 148.572 197.625 148.485C198.205 148.282 199.046 147.999 200.096 147.698C202.204 147.082 205.151 146.35 208.445 145.723C211.253 145.186 214.087 144.792 216.936 144.541C218.03 144.449 218.913 144.412 219.531 144.4C219.851 144.382 220.172 144.397 220.489 144.443Z" fill="#263238"/>
<path d="M186.39 175.138C186.39 175.138 186.322 175.045 186.229 174.855L185.821 173.993C185.469 173.249 184.993 172.148 184.425 170.806C183.275 168.099 181.811 164.303 180.254 160.101C178.696 155.899 177.263 152.103 176.175 149.365C175.644 148.036 175.205 146.947 174.877 146.135L174.531 145.255C174.483 145.153 174.45 145.046 174.432 144.935C174.498 145.024 174.552 145.121 174.593 145.224L175.001 146.079C175.347 146.824 175.829 147.925 176.398 149.272C177.547 151.98 179.012 155.77 180.569 159.978C182.126 164.186 183.56 167.976 184.647 170.714L185.945 173.944L186.291 174.824C186.338 174.924 186.371 175.029 186.39 175.138Z" fill="#263238"/>
<path d="M217.956 165.01C217.857 165.067 217.751 165.11 217.64 165.139L216.726 165.447L213.327 166.536C210.472 167.459 206.529 168.776 202.204 170.228C197.878 171.68 193.923 172.972 191.049 173.833C189.61 174.264 188.442 174.602 187.632 174.824L186.699 175.063C186.592 175.102 186.479 175.123 186.365 175.125C186.466 175.072 186.571 175.028 186.68 174.996L187.595 174.694L190.975 173.605C193.83 172.682 197.773 171.366 202.099 169.914C206.424 168.462 210.379 167.17 213.222 166.302C214.662 165.872 215.83 165.533 216.639 165.318L217.572 165.072C217.696 165.033 217.826 165.012 217.956 165.01Z" fill="#263238"/>
<path d="M205.077 15.7687L201.895 16.9008L200.529 12.7601C198.02 5.12487 190.024 1.07036 182.676 3.64826C175.328 6.22617 171.417 14.5998 173.932 22.235L175.291 26.3757L172.097 27.5139C170.878 27.9844 169.889 28.9041 169.334 30.0821C168.78 31.26 168.702 32.6054 169.118 33.8387L177.973 60.7806C178.157 61.3911 178.462 61.9587 178.871 62.4494C179.279 62.9402 179.783 63.3442 180.351 63.6375C180.919 63.9308 181.541 64.1073 182.18 64.1566C182.818 64.206 183.459 64.127 184.066 63.9246L217.035 52.1794C218.267 51.7073 219.268 50.7787 219.828 49.5882C220.388 48.3977 220.463 47.0377 220.038 45.7931L211.195 18.8511C211.006 18.2423 210.697 17.6776 210.284 17.1906C209.871 16.7036 209.365 16.3043 208.794 16.0167C208.223 15.729 207.599 15.5588 206.961 15.5162C206.322 15.4736 205.682 15.5595 205.077 15.7687ZM179.938 20.0755C179.262 18.0894 179.383 15.9196 180.277 14.0205C181.171 12.1213 182.768 10.6401 184.734 9.88693C185.705 9.55732 186.733 9.42567 187.756 9.49984C188.779 9.57402 189.777 9.85249 190.69 10.3187C191.602 10.7848 192.412 11.4292 193.069 12.2133C193.726 12.9974 194.219 13.9053 194.516 14.8828L195.876 19.0234L181.298 24.2039L179.938 20.0755ZM198.477 43.9781L200.739 50.8627C200.781 51.0007 200.767 51.1492 200.702 51.2775C200.636 51.4059 200.523 51.5041 200.387 51.5518L197.223 52.6777C197.097 52.711 196.963 52.6952 196.848 52.6334C196.733 52.5717 196.646 52.4687 196.605 52.3455L194.343 45.467C193.086 45.3988 191.879 44.9498 190.885 44.1801C189.892 43.4104 189.157 42.3567 188.782 41.1602C188.244 39.5784 188.342 37.8508 189.055 36.3393C189.768 34.8278 191.041 33.6495 192.607 33.0512C193.378 32.7961 194.192 32.6972 195.002 32.7604C195.812 32.8236 196.601 33.0476 197.323 33.4191C198.044 33.7907 198.684 34.3023 199.204 34.9238C199.724 35.5454 200.113 36.2642 200.35 37.038C200.755 38.2516 200.796 39.5567 200.466 40.7929C200.137 42.029 199.452 43.1425 198.496 43.9965L198.477 43.9781Z" fill="#58968B"/>
<path d="M201.752 16.8211C201.752 16.9011 195.851 19.116 188.509 21.7432C181.168 24.3703 175.18 26.4683 175.149 26.3822C175.118 26.2961 181.051 24.0873 188.398 21.4602C195.746 18.833 201.721 16.7412 201.752 16.8211Z" fill="#263238"/>
<path d="M208.76 17.9593C208.79 18.0092 208.813 18.063 208.828 18.1193L209.001 18.6053C209.162 19.0545 209.384 19.6759 209.663 20.4511L212.036 27.3296C213.024 30.2398 214.205 33.7036 215.515 37.5428C216.133 39.4686 216.862 41.4681 217.542 43.5846C217.905 44.6721 218.063 45.8175 218.005 46.9623C217.952 47.5576 217.782 48.1366 217.504 48.6666C217.21 49.1962 216.815 49.6641 216.343 50.0448C215.388 50.7386 214.328 51.2765 213.203 51.6383L210.021 52.7765L203.996 54.9237L193.793 58.5414L186.903 60.9532L185.049 61.5685L184.555 61.7284L184.388 61.7715C184.388 61.7715 184.437 61.7407 184.549 61.6977L185.024 61.5069L186.878 60.8117L193.731 58.3015L203.915 54.6099L209.91 52.5058L213.092 51.3614C214.184 51.0118 215.213 50.4904 216.139 49.8171C216.581 49.4674 216.951 49.0347 217.226 48.5435C217.487 48.0533 217.645 47.5153 217.69 46.9623C217.747 45.8593 217.596 44.7553 217.245 43.7077C216.578 41.6097 215.873 39.5916 215.237 37.6659C213.957 33.8206 212.802 30.3505 211.825 27.4281C210.849 24.5056 210.095 22.1738 209.551 20.5188C209.292 19.719 209.094 19.0914 208.933 18.6361C208.872 18.4331 208.828 18.2731 208.785 18.1439C208.767 18.084 208.759 18.0218 208.76 17.9593Z" fill="#263238"/>
<path d="M191.358 9.47476C191.358 9.50552 191.031 9.30864 190.425 9.06869C189.562 8.73846 188.649 8.55542 187.725 8.52726C186.359 8.47818 184.999 8.73467 183.745 9.27787C182.213 9.94954 180.904 11.0396 179.969 12.4218C179.026 13.7981 178.52 15.4252 178.517 17.0916C178.529 18.4553 178.738 19.8103 179.135 21.1153C179.463 22.2412 179.79 23.1334 180.013 23.7486C180.142 24.065 180.249 24.3898 180.334 24.7207C180.157 24.4283 180.01 24.1191 179.895 23.7978C179.642 23.1826 179.277 22.3089 178.919 21.183C178.479 19.862 178.239 18.483 178.208 17.0916C178.195 15.361 178.713 13.6675 179.691 12.2372C180.661 10.808 182.023 9.68674 183.615 9.00716C184.913 8.46149 186.319 8.21944 187.725 8.29962C188.67 8.34907 189.597 8.57009 190.462 8.95179C190.693 9.06055 190.918 9.18172 191.136 9.31478C191.217 9.35843 191.291 9.41219 191.358 9.47476Z" fill="#263238"/>
<path d="M191.643 33.5494C191.74 33.4867 191.844 33.4352 191.952 33.3956C192.262 33.2568 192.582 33.1416 192.91 33.051C193.433 32.8999 193.972 32.8111 194.517 32.7865C195.252 32.7472 195.988 32.8581 196.679 33.1126C198.261 33.6602 199.714 35.2721 200.43 37.4193C200.787 38.5682 200.798 39.796 200.461 40.9509C200.072 42.2068 199.378 43.3479 198.441 44.2733L198.478 44.1133C199.3 46.3528 200.196 48.7954 201.123 51.3364L201.178 51.4902L201.024 51.5394L199.609 52.0132L196.519 53.0406L196.364 53.0898L196.315 52.936C195.468 50.3827 194.541 47.9832 193.843 45.6822L193.979 45.7868C192.771 45.6833 191.619 45.2299 190.667 44.4824C189.804 43.8232 189.097 42.983 188.596 42.0214C188.143 41.1697 187.918 40.2163 187.941 39.2528C187.973 38.2685 188.221 37.3032 188.668 36.425C189.116 35.5467 189.751 34.7772 190.531 34.1708C190.852 33.9109 191.213 33.7033 191.6 33.5556C191.251 33.7618 190.912 33.9856 190.586 34.2262C189.709 34.9412 189.032 35.8694 188.621 36.921C188.283 37.7124 188.125 38.5685 188.158 39.428C188.191 40.2874 188.415 41.1289 188.813 41.8922C189.306 42.8162 189.996 43.6223 190.834 44.2548C191.743 44.9624 192.841 45.3901 193.991 45.4853L194.096 45.4853L194.096 45.5837C194.776 47.8663 195.709 50.2658 196.568 52.8253L196.364 52.7207L199.454 51.6994L200.863 51.2256L200.764 51.4348C199.843 48.8877 198.954 46.4451 198.138 44.2056L198.107 44.1133L198.181 44.0395C199.079 43.151 199.749 42.0598 200.134 40.8586C200.462 39.7563 200.462 38.5831 200.134 37.4809C199.46 35.4136 198.07 33.8447 196.568 33.291C195.899 33.0352 195.184 32.916 194.467 32.9403C193.933 32.9494 193.402 33.0217 192.885 33.1556C192.082 33.3648 191.649 33.5802 191.643 33.5494Z" fill="#263238"/>
<path d="M172.542 211.198L110.82 210.909C109.055 210.902 107.308 210.548 105.68 209.869C104.052 209.19 102.575 208.198 101.332 206.95C100.089 205.703 99.105 204.223 98.4363 202.597C97.7676 200.971 97.4272 199.229 97.4345 197.472L98.0896 43.4065C98.0968 41.6481 98.4521 39.9084 99.1351 38.2869C99.8181 36.6653 100.815 35.1936 102.07 33.956C103.324 32.7183 104.812 31.739 106.447 31.074C108.082 30.4089 109.832 30.0712 111.598 30.0801L173.32 30.357C176.886 30.3733 180.298 31.7986 182.809 34.3195C185.319 36.8404 186.72 40.2506 186.705 43.8003L186.05 197.859C186.043 199.618 185.688 201.359 185.005 202.981C184.322 204.603 183.325 206.076 182.071 207.314C180.816 208.553 179.329 209.533 177.694 210.2C176.059 210.866 174.308 211.205 172.542 211.198Z" fill="#455A64"/>
<path d="M173.234 35.679L161.264 35.6236C160.477 35.6382 159.728 35.9632 159.181 36.5273C158.634 37.0913 158.334 37.8484 158.347 38.6322L158.347 40.8164C158.359 41.6008 158.058 42.3578 157.51 42.9217C156.962 43.4856 156.212 43.8104 155.424 43.825L132.102 43.7204C131.314 43.6978 130.567 43.3655 130.024 42.796C129.48 42.2265 129.186 41.4661 129.204 40.681L129.204 38.5215C129.224 37.737 128.931 36.9766 128.389 36.4069C127.847 35.8372 127.1 35.5047 126.312 35.4821L122.104 35.4821L111.629 35.4329C110.393 35.4272 109.167 35.6642 108.022 36.1301C106.877 36.5961 105.836 37.2821 104.957 38.1487C104.079 39.0154 103.38 40.0459 102.902 41.1813C102.423 42.3168 102.174 43.535 102.168 44.7663L101.55 195.14C101.544 196.371 101.781 197.591 102.248 198.731C102.716 199.871 103.404 200.908 104.274 201.783C105.144 202.657 106.179 203.353 107.319 203.829C108.459 204.306 109.682 204.554 110.919 204.56L172.523 204.843C173.76 204.848 174.986 204.61 176.13 204.143C177.275 203.676 178.316 202.99 179.194 202.123C180.072 201.255 180.769 200.224 181.247 199.089C181.725 197.953 181.973 196.735 181.978 195.503L182.596 45.1293C182.605 43.8966 182.37 42.6743 181.904 41.5321C181.439 40.39 180.751 39.3504 179.882 38.4727C179.013 37.5951 177.978 36.8967 176.837 36.4173C175.697 35.9379 174.472 35.6871 173.234 35.679Z" fill="white"/>
<path d="M164.941 184.742L119.137 184.533C118.662 184.533 118.278 184.016 118.285 183.382L118.334 171.453C118.304 171.189 118.376 170.923 118.538 170.711C118.699 170.499 118.936 170.357 119.199 170.314L165.003 170.524C165.266 170.569 165.502 170.714 165.661 170.928C165.82 171.143 165.89 171.41 165.855 171.674L165.806 183.604C165.806 184.238 165.417 184.748 164.941 184.742Z" fill="#58968B"/>
<path d="M134.152 180L133.186 178.62C133.756 178.398 134.08 177.93 134.08 177.294C134.08 176.364 133.396 175.8 132.292 175.8L130.564 175.8L130.564 180L131.344 180L131.344 178.776L132.292 178.776C132.346 178.776 132.4 178.776 132.454 178.77L133.312 180L134.152 180ZM133.294 177.294C133.294 177.822 132.94 178.134 132.256 178.134L131.344 178.134L131.344 176.46L132.256 176.46C132.94 176.46 133.294 176.766 133.294 177.294ZM137.893 178.416C137.893 177.414 137.209 176.76 136.273 176.76C135.319 176.76 134.617 177.444 134.617 178.398C134.617 179.352 135.313 180.042 136.387 180.042C136.939 180.042 137.389 179.862 137.677 179.52L137.275 179.058C137.047 179.292 136.765 179.406 136.405 179.406C135.847 179.406 135.457 179.106 135.367 178.638L137.881 178.638C137.887 178.566 137.893 178.476 137.893 178.416ZM136.273 177.36C136.765 177.36 137.119 177.678 137.179 178.14L135.361 178.14C135.433 177.672 135.787 177.36 136.273 177.36ZM141.08 176.796L141.08 177.222C140.816 176.904 140.42 176.76 139.97 176.76C139.052 176.76 138.35 177.372 138.35 178.302C138.35 179.232 139.052 179.856 139.97 179.856C140.402 179.856 140.78 179.718 141.044 179.43L141.044 179.598C141.044 180.246 140.732 180.57 140.024 180.57C139.58 180.57 139.124 180.42 138.842 180.186L138.506 180.75C138.872 181.05 139.466 181.206 140.066 181.206C141.188 181.206 141.794 180.678 141.794 179.514L141.794 176.796L141.08 176.796ZM140.084 179.22C139.514 179.22 139.106 178.848 139.106 178.302C139.106 177.762 139.514 177.396 140.084 177.396C140.648 177.396 141.056 177.762 141.056 178.302C141.056 178.848 140.648 179.22 140.084 179.22ZM143.158 176.268C143.44 176.268 143.638 176.064 143.638 175.8C143.638 175.554 143.434 175.368 143.158 175.368C142.882 175.368 142.678 175.566 142.678 175.818C142.678 176.07 142.882 176.268 143.158 176.268ZM142.78 180L143.53 180L143.53 176.796L142.78 176.796L142.78 180ZM145.504 180.042C146.404 180.042 146.956 179.652 146.956 179.052C146.956 177.798 144.976 178.374 144.976 177.726C144.976 177.516 145.192 177.366 145.648 177.366C145.954 177.366 146.26 177.426 146.566 177.606L146.854 177.036C146.566 176.862 146.08 176.76 145.654 176.76C144.79 176.76 144.244 177.156 144.244 177.762C144.244 179.04 146.224 178.464 146.224 179.076C146.224 179.298 146.026 179.43 145.552 179.43C145.15 179.43 144.718 179.298 144.436 179.112L144.148 179.682C144.436 179.886 144.97 180.042 145.504 180.042ZM149.318 179.292C149.204 179.382 149.054 179.424 148.898 179.424C148.61 179.424 148.454 179.256 148.454 178.944L148.454 177.42L149.312 177.42L149.312 176.82L148.454 176.82L148.454 176.088L147.704 176.088L147.704 176.82L147.176 176.82L147.176 177.42L147.704 177.42L147.704 178.962C147.704 179.67 148.106 180.042 148.808 180.042C149.078 180.042 149.348 179.97 149.528 179.826L149.318 179.292ZM153.051 178.416C153.051 177.414 152.367 176.76 151.431 176.76C150.477 176.76 149.775 177.444 149.775 178.398C149.775 179.352 150.471 180.042 151.545 180.042C152.097 180.042 152.547 179.862 152.835 179.52L152.433 179.058C152.205 179.292 151.923 179.406 151.563 179.406C151.005 179.406 150.615 179.106 150.525 178.638L153.039 178.638C153.045 178.566 153.051 178.476 153.051 178.416ZM151.431 177.36C151.923 177.36 152.277 177.678 152.337 178.14L150.519 178.14C150.591 177.672 150.945 177.36 151.431 177.36ZM154.486 177.264L154.486 176.796L153.772 176.796L153.772 180L154.522 180L154.522 178.446C154.522 177.792 154.882 177.456 155.452 177.456C155.506 177.456 155.56 177.462 155.626 177.474L155.626 176.76C155.092 176.76 154.702 176.928 154.486 177.264Z" fill="#E8E8E3"/>
<path d="M128.274 79.8609L112.38 79.7891L112.367 82.693L128.261 82.7648L128.274 79.8609Z" fill="#58968B"/>
<path opacity="0.1" d="M128.274 79.8609L112.38 79.7891L112.367 82.693L128.261 82.7648L128.274 79.8609Z" fill="black"/>
<path d="M174.871 97.6839C174.994 97.6752 175.115 97.6482 175.23 97.604C175.4 97.5368 175.549 97.4234 175.658 97.2766C175.767 97.1298 175.833 96.9555 175.848 96.7734C175.848 95.7951 175.848 94.3677 175.848 92.5343L175.848 88.609C175.885 88.3285 175.824 88.0439 175.675 87.803C175.589 87.6891 175.478 87.5961 175.35 87.5311C175.223 87.4661 175.083 87.4307 174.939 87.4277L173.975 87.4277L165.046 87.4277L113.359 87.237C113.227 87.2369 113.096 87.2681 112.978 87.328C112.86 87.3879 112.758 87.4748 112.68 87.5815C112.53 87.8219 112.473 88.1083 112.519 88.3875C112.519 89.0027 112.519 89.618 112.519 90.2332C112.519 91.4637 112.519 92.6942 112.519 93.9248C112.519 94.54 112.519 95.1553 112.519 95.7705C112.493 96.0591 112.493 96.3494 112.519 96.638C112.551 96.7609 112.612 96.8747 112.695 96.9707C112.779 97.0667 112.883 97.1423 113.001 97.1917C113.123 97.24 113.253 97.263 113.384 97.2594L116.53 97.2594L130.255 97.3332L153.49 97.4748L169.155 97.5978L173.413 97.647L174.519 97.647L174.902 97.647L174.519 97.647L173.413 97.647L169.155 97.647L153.49 97.647L130.255 97.5732L116.53 97.5178L113.384 97.5178C113.211 97.5248 113.038 97.4954 112.877 97.4317C112.715 97.3618 112.571 97.2563 112.455 97.1232C112.34 96.99 112.256 96.8326 112.21 96.6626C112.174 96.5011 112.162 96.3354 112.173 96.1704L112.173 95.7151C112.173 95.0999 112.173 94.4846 112.173 93.8694C112.173 92.6389 112.173 91.4084 112.173 90.1779C112.173 89.5626 112.173 88.9474 112.173 88.3321C112.164 88.1682 112.164 88.0038 112.173 87.8399C112.197 87.6573 112.267 87.4838 112.377 87.3354C112.485 87.1887 112.627 87.0694 112.79 86.9872C112.953 86.9049 113.133 86.8619 113.316 86.8616L165.003 87.1508L173.932 87.2123L174.902 87.2123C175.072 87.2161 175.239 87.2593 175.389 87.3383C175.539 87.4173 175.669 87.5301 175.767 87.6676C175.939 87.9362 176.009 88.2568 175.965 88.5721C175.965 88.8612 175.965 89.1504 175.965 89.4273C175.965 90.547 175.965 91.5683 175.965 92.5035C175.965 94.3493 175.928 95.7644 175.916 96.7488C175.897 96.9379 175.826 97.1181 175.71 97.2692C175.595 97.4202 175.439 97.5362 175.261 97.604C175.141 97.6651 175.006 97.6927 174.871 97.6839Z" fill="#E0E0E0"/>
<path d="M146.47 90.4238L117.401 90.4238L117.401 93.1371L146.47 93.1371L146.47 90.4238Z" fill="#58968B"/>
<path opacity="0.2" d="M146.47 90.4238L117.401 90.4238L117.401 93.1371L146.47 93.1371L146.47 90.4238Z" fill="white"/>
<path d="M128.166 106.354L112.272 106.282L112.259 109.186L128.153 109.258L128.166 106.354Z" fill="#58968B"/>
<path opacity="0.1" d="M128.166 106.354L112.272 106.282L112.259 109.186L128.153 109.258L128.166 106.354Z" fill="black"/>
<path d="M174.464 124.183C174.587 124.167 174.708 124.142 174.828 124.109C175 124.055 175.158 123.965 175.293 123.845C175.427 123.725 175.534 123.578 175.607 123.414C175.707 123.166 175.745 122.898 175.718 122.632C175.718 122.337 175.718 122.017 175.718 121.654C175.718 120.947 175.718 120.135 175.718 119.193L175.718 115.28C175.747 114.997 175.684 114.713 175.539 114.468C175.383 114.222 175.144 114.039 174.865 113.951C174.557 113.897 174.244 113.88 173.932 113.902L165.04 113.902L113.532 113.711C113.255 113.711 112.987 113.811 112.779 113.993C112.57 114.176 112.436 114.428 112.402 114.702C112.402 115.317 112.402 115.932 112.402 116.548C112.402 117.778 112.402 119.009 112.402 120.239C112.402 120.854 112.402 121.47 112.402 122.085C112.379 122.372 112.391 122.662 112.439 122.946C112.513 123.197 112.672 123.414 112.89 123.562C113.117 123.709 113.386 123.778 113.656 123.758L114.558 123.758L116.344 123.758L130.02 123.826L153.175 123.968L168.784 124.091L173.03 124.14L174.136 124.14L174.513 124.14L174.136 124.14L173.03 124.14L168.784 124.14L153.175 124.14L130.02 124.066L116.344 124.017L114.558 124.017L113.656 124.017C113.322 124.033 112.991 123.945 112.711 123.765C112.428 123.569 112.222 123.282 112.13 122.952C112.074 122.642 112.058 122.326 112.08 122.011C112.08 121.396 112.08 120.781 112.08 120.165C112.08 118.935 112.08 117.704 112.08 116.474C112.08 115.859 112.08 115.243 112.08 114.597C112.124 114.246 112.295 113.923 112.561 113.688C112.828 113.454 113.171 113.324 113.526 113.324L165.033 113.607L173.926 113.674C174.257 113.652 174.589 113.673 174.915 113.736C175.233 113.845 175.503 114.063 175.675 114.351C175.836 114.624 175.905 114.941 175.873 115.256C175.873 115.545 175.873 115.828 175.873 116.111C175.873 117.224 175.873 118.246 175.873 119.187C175.873 120.128 175.873 120.916 175.873 121.648C175.873 122.005 175.873 122.331 175.873 122.626C175.896 122.902 175.852 123.178 175.743 123.432C175.665 123.604 175.549 123.755 175.405 123.877C175.261 123.998 175.091 124.086 174.908 124.134C174.765 124.182 174.614 124.198 174.464 124.183Z" fill="#E0E0E0"/>
<path d="M128.045 133.992L112.151 133.92L112.138 136.824L128.032 136.896L128.045 133.992Z" fill="#58968B"/>
<path opacity="0.1" d="M128.045 133.992L112.151 133.92L112.138 136.824L128.032 136.896L128.045 133.992Z" fill="black"/>
<path d="M174.346 151.814C174.469 151.798 174.591 151.775 174.711 151.746C174.883 151.691 175.042 151.6 175.176 151.479C175.311 151.358 175.417 151.21 175.489 151.045C175.589 150.799 175.628 150.533 175.601 150.269C175.601 149.968 175.601 149.654 175.601 149.291C175.601 148.584 175.601 147.765 175.601 146.83L175.601 142.948C175.63 142.665 175.567 142.38 175.421 142.136C175.269 141.887 175.029 141.702 174.748 141.619C174.441 141.559 174.127 141.54 173.815 141.564L164.922 141.564L113.415 141.373C113.138 141.374 112.871 141.474 112.663 141.657C112.454 141.839 112.32 142.09 112.284 142.363C112.284 142.979 112.284 143.594 112.284 144.209C112.284 145.44 112.284 146.67 112.284 147.901C112.284 148.516 112.284 149.131 112.284 149.746C112.261 150.032 112.274 150.319 112.321 150.602C112.398 150.851 112.557 151.068 112.772 151.217C113.001 151.361 113.269 151.43 113.539 151.414L114.391 151.414L116.177 151.414L129.853 151.481L153.008 151.623L168.618 151.746L172.863 151.795L173.969 151.795L174.346 151.795L173.969 151.795L172.863 151.795L168.618 151.795L153.008 151.795L129.853 151.728L116.177 151.672L113.489 151.672C113.155 151.695 112.822 151.606 112.544 151.42C112.262 151.226 112.057 150.941 111.963 150.614C111.907 150.301 111.891 149.983 111.913 149.666C111.913 149.051 111.913 148.436 111.913 147.821C111.913 146.59 111.913 145.36 111.913 144.129C111.913 143.514 111.913 142.899 111.913 142.253C111.957 141.901 112.128 141.578 112.394 141.344C112.661 141.109 113.004 140.979 113.359 140.979L164.867 141.262L173.778 141.379C174.109 141.359 174.441 141.382 174.766 141.447C175.087 141.551 175.358 141.77 175.526 142.062C175.686 142.333 175.756 142.648 175.724 142.96C175.724 143.249 175.724 143.539 175.724 143.815C175.724 144.929 175.724 145.95 175.724 146.892C175.724 147.833 175.724 148.627 175.724 149.353C175.724 149.703 175.724 150.029 175.724 150.331C175.747 150.606 175.703 150.883 175.594 151.137C175.514 151.307 175.398 151.457 175.254 151.578C175.11 151.699 174.942 151.788 174.76 151.838C174.622 151.861 174.481 151.852 174.346 151.814Z" fill="#E0E0E0"/>
<path d="M146.235 116.917L117.166 116.917L117.166 119.63L146.235 119.63L146.235 116.917Z" fill="#58968B"/>
<path opacity="0.2" d="M146.235 116.917L117.166 116.917L117.166 119.63L146.235 119.63L146.235 116.917Z" fill="white"/>
<path d="M119.162 146.794C119.144 147.04 119.054 147.275 118.904 147.471C118.753 147.668 118.548 147.816 118.314 147.897C118.08 147.979 117.827 147.991 117.587 147.932C117.346 147.872 117.128 147.744 116.959 147.563C116.791 147.382 116.679 147.156 116.637 146.913C116.596 146.669 116.627 146.419 116.726 146.193C116.826 145.967 116.989 145.775 117.197 145.64C117.405 145.505 117.647 145.433 117.895 145.434C118.068 145.439 118.239 145.479 118.396 145.551C118.554 145.622 118.696 145.724 118.814 145.851C118.932 145.977 119.023 146.125 119.083 146.287C119.143 146.449 119.17 146.621 119.162 146.794Z" fill="#58968B"/>
<path d="M123.105 146.806C123.088 147.053 122.999 147.289 122.849 147.486C122.699 147.683 122.494 147.832 122.261 147.914C122.027 147.997 121.773 148.01 121.532 147.951C121.291 147.892 121.073 147.765 120.903 147.584C120.734 147.403 120.622 147.177 120.58 146.933C120.538 146.69 120.569 146.439 120.668 146.213C120.767 145.986 120.931 145.794 121.139 145.659C121.347 145.523 121.59 145.452 121.838 145.452C122.185 145.467 122.513 145.617 122.75 145.87C122.988 146.124 123.115 146.46 123.105 146.806Z" fill="#58968B"/>
<path d="M127.041 146.825C127.024 147.071 126.935 147.307 126.785 147.504C126.635 147.701 126.431 147.85 126.197 147.933C125.963 148.016 125.71 148.028 125.469 147.97C125.227 147.911 125.009 147.783 124.84 147.602C124.67 147.422 124.558 147.196 124.516 146.952C124.474 146.708 124.505 146.458 124.604 146.231C124.704 146.005 124.867 145.812 125.075 145.677C125.283 145.542 125.526 145.47 125.774 145.471C126.122 145.485 126.449 145.636 126.687 145.889C126.924 146.142 127.051 146.478 127.041 146.825Z" fill="#58968B"/>
<path d="M130.978 146.843C130.961 147.09 130.872 147.326 130.722 147.523C130.572 147.72 130.367 147.869 130.134 147.951C129.9 148.034 129.646 148.047 129.405 147.988C129.164 147.929 128.946 147.802 128.776 147.621C128.607 147.44 128.495 147.214 128.453 146.97C128.411 146.727 128.442 146.476 128.541 146.25C128.64 146.023 128.804 145.831 129.012 145.696C129.22 145.561 129.463 145.489 129.711 145.49C130.059 145.502 130.388 145.652 130.625 145.906C130.863 146.159 130.989 146.497 130.978 146.843Z" fill="#58968B"/>
<path d="M134.914 146.861C134.897 147.109 134.807 147.346 134.656 147.544C134.504 147.741 134.298 147.89 134.062 147.972C133.826 148.053 133.572 148.064 133.33 148.003C133.088 147.942 132.87 147.811 132.702 147.627C132.534 147.443 132.424 147.214 132.386 146.969C132.348 146.723 132.383 146.472 132.487 146.246C132.591 146.021 132.759 145.83 132.971 145.699C133.183 145.567 133.429 145.501 133.678 145.508C134.021 145.528 134.341 145.681 134.572 145.934C134.803 146.187 134.926 146.52 134.914 146.861Z" fill="#58968B"/>
<path d="M138.857 146.879C138.84 147.126 138.751 147.362 138.601 147.559C138.451 147.756 138.246 147.905 138.012 147.988C137.779 148.07 137.525 148.083 137.284 148.024C137.043 147.966 136.825 147.838 136.655 147.657C136.486 147.476 136.374 147.25 136.332 147.007C136.29 146.763 136.321 146.513 136.42 146.286C136.519 146.06 136.683 145.867 136.891 145.732C137.099 145.597 137.342 145.525 137.59 145.526C137.937 145.54 138.265 145.69 138.502 145.944C138.739 146.197 138.867 146.533 138.857 146.879Z" fill="#58968B"/>
<path d="M142.793 146.898C142.805 147.072 142.781 147.246 142.723 147.41C142.665 147.574 142.573 147.724 142.454 147.851C142.335 147.978 142.191 148.079 142.031 148.149C141.87 148.218 141.698 148.254 141.523 148.254C141.348 148.254 141.176 148.218 141.015 148.149C140.855 148.079 140.711 147.978 140.592 147.851C140.473 147.724 140.381 147.574 140.323 147.41C140.265 147.246 140.241 147.072 140.253 146.898C140.241 146.725 140.265 146.551 140.323 146.387C140.381 146.223 140.473 146.073 140.592 145.946C140.711 145.818 140.855 145.717 141.015 145.648C141.176 145.578 141.348 145.543 141.523 145.543C141.698 145.543 141.87 145.578 142.031 145.648C142.191 145.717 142.335 145.818 142.454 145.946C142.573 146.073 142.665 146.223 142.723 146.387C142.781 146.551 142.805 146.725 142.793 146.898Z" fill="#58968B"/>
<path d="M146.73 146.917C146.713 147.165 146.623 147.402 146.471 147.6C146.32 147.797 146.113 147.946 145.878 148.027C145.642 148.109 145.388 148.12 145.146 148.059C144.904 147.997 144.685 147.867 144.518 147.683C144.35 147.499 144.24 147.27 144.202 147.025C144.163 146.779 144.198 146.528 144.302 146.302C144.406 146.076 144.575 145.886 144.787 145.754C144.998 145.623 145.244 145.557 145.494 145.563C145.837 145.582 146.159 145.735 146.39 145.988C146.621 146.241 146.743 146.575 146.73 146.917Z" fill="#58968B"/>
<path d="M150.666 146.935C150.649 147.183 150.559 147.421 150.407 147.618C150.256 147.815 150.05 147.964 149.814 148.046C149.578 148.127 149.324 148.138 149.082 148.077C148.84 148.016 148.622 147.885 148.454 147.701C148.286 147.518 148.176 147.289 148.138 147.043C148.1 146.798 148.135 146.546 148.239 146.321C148.343 146.095 148.511 145.904 148.723 145.773C148.934 145.642 149.18 145.575 149.43 145.582C149.773 145.601 150.095 145.754 150.326 146.007C150.557 146.26 150.679 146.593 150.666 146.935Z" fill="#58968B"/>
<g opacity="0.2">
<path opacity="0.2" d="M119.162 146.794C119.144 147.04 119.054 147.275 118.904 147.471C118.753 147.668 118.548 147.816 118.314 147.897C118.08 147.979 117.827 147.991 117.587 147.932C117.346 147.872 117.128 147.744 116.959 147.563C116.791 147.382 116.679 147.156 116.637 146.913C116.596 146.669 116.627 146.419 116.726 146.193C116.826 145.967 116.989 145.775 117.197 145.64C117.405 145.505 117.647 145.433 117.895 145.434C118.069 145.439 118.239 145.479 118.397 145.551C118.554 145.622 118.696 145.724 118.814 145.851C118.932 145.977 119.023 146.125 119.083 146.287C119.143 146.449 119.17 146.621 119.162 146.794Z" fill="white"/>
<path opacity="0.2" d="M123.105 146.806C123.088 147.053 122.999 147.289 122.849 147.486C122.699 147.683 122.494 147.832 122.261 147.914C122.027 147.997 121.773 148.01 121.532 147.951C121.291 147.892 121.073 147.765 120.903 147.584C120.734 147.403 120.622 147.177 120.58 146.933C120.538 146.69 120.569 146.439 120.668 146.213C120.767 145.986 120.931 145.794 121.139 145.659C121.347 145.523 121.59 145.452 121.838 145.452C122.185 145.467 122.513 145.617 122.75 145.87C122.988 146.124 123.115 146.46 123.105 146.806Z" fill="white"/>
<path opacity="0.2" d="M127.041 146.824C127.024 147.07 126.935 147.306 126.785 147.503C126.635 147.7 126.43 147.849 126.197 147.932C125.963 148.015 125.71 148.027 125.468 147.969C125.227 147.91 125.009 147.782 124.839 147.601C124.67 147.421 124.558 147.195 124.516 146.951C124.474 146.707 124.505 146.457 124.604 146.23C124.703 146.004 124.867 145.811 125.075 145.676C125.283 145.541 125.526 145.469 125.774 145.47C126.122 145.484 126.449 145.635 126.686 145.888C126.924 146.141 127.051 146.477 127.041 146.824Z" fill="white"/>
<path opacity="0.2" d="M130.978 146.842C130.961 147.089 130.872 147.325 130.722 147.522C130.572 147.719 130.367 147.868 130.133 147.95C129.899 148.033 129.646 148.046 129.405 147.987C129.164 147.928 128.945 147.801 128.776 147.62C128.607 147.439 128.495 147.213 128.453 146.97C128.411 146.726 128.442 146.475 128.541 146.249C128.64 146.022 128.804 145.83 129.012 145.695C129.22 145.56 129.463 145.488 129.711 145.489C130.059 145.501 130.388 145.651 130.625 145.905C130.863 146.159 130.989 146.496 130.978 146.842Z" fill="white"/>
<path opacity="0.2" d="M134.914 146.86C134.897 147.108 134.807 147.345 134.656 147.543C134.504 147.74 134.298 147.889 134.062 147.971C133.826 148.052 133.572 148.063 133.33 148.002C133.088 147.941 132.87 147.81 132.702 147.626C132.534 147.442 132.424 147.213 132.386 146.968C132.348 146.722 132.383 146.471 132.487 146.245C132.591 146.02 132.759 145.829 132.971 145.698C133.183 145.566 133.429 145.5 133.678 145.507C134.021 145.527 134.341 145.68 134.572 145.933C134.803 146.186 134.926 146.519 134.914 146.86Z" fill="white"/>
<path opacity="0.2" d="M138.857 146.879C138.84 147.126 138.751 147.362 138.601 147.559C138.451 147.756 138.246 147.905 138.012 147.988C137.778 148.07 137.525 148.083 137.284 148.024C137.043 147.966 136.824 147.838 136.655 147.657C136.486 147.476 136.374 147.25 136.332 147.007C136.29 146.763 136.321 146.513 136.42 146.286C136.519 146.06 136.683 145.867 136.891 145.732C137.099 145.597 137.342 145.525 137.59 145.526C137.937 145.54 138.265 145.69 138.502 145.944C138.739 146.197 138.867 146.533 138.857 146.879Z" fill="white"/>
<path opacity="0.2" d="M142.793 146.898C142.805 147.072 142.781 147.246 142.723 147.41C142.665 147.574 142.573 147.724 142.454 147.851C142.335 147.978 142.191 148.079 142.03 148.149C141.87 148.218 141.698 148.254 141.523 148.254C141.348 148.254 141.175 148.218 141.015 148.149C140.855 148.079 140.711 147.978 140.592 147.851C140.473 147.724 140.381 147.574 140.323 147.41C140.265 147.246 140.241 147.072 140.253 146.898C140.241 146.725 140.265 146.551 140.323 146.387C140.381 146.223 140.473 146.073 140.592 145.946C140.711 145.818 140.855 145.717 141.015 145.648C141.175 145.578 141.348 145.543 141.523 145.543C141.698 145.543 141.87 145.578 142.03 145.648C142.191 145.717 142.335 145.818 142.454 145.946C142.573 146.073 142.665 146.223 142.723 146.387C142.781 146.551 142.805 146.725 142.793 146.898Z" fill="white"/>
<path opacity="0.2" d="M146.729 146.916C146.712 147.164 146.622 147.401 146.471 147.599C146.319 147.796 146.113 147.945 145.877 148.026C145.642 148.108 145.387 148.119 145.145 148.058C144.903 147.996 144.685 147.866 144.517 147.682C144.349 147.498 144.239 147.269 144.201 147.024C144.163 146.778 144.198 146.527 144.302 146.301C144.406 146.075 144.574 145.885 144.786 145.753C144.998 145.622 145.244 145.556 145.493 145.562C145.836 145.581 146.158 145.734 146.389 145.987C146.621 146.24 146.743 146.574 146.729 146.916Z" fill="white"/>
<path opacity="0.2" d="M150.666 146.934C150.649 147.182 150.559 147.42 150.407 147.617C150.256 147.815 150.05 147.963 149.814 148.045C149.578 148.127 149.324 148.137 149.082 148.076C148.84 148.015 148.622 147.884 148.454 147.7C148.286 147.517 148.176 147.288 148.138 147.042C148.1 146.797 148.135 146.545 148.239 146.32C148.343 146.094 148.511 145.903 148.723 145.772C148.934 145.641 149.18 145.574 149.43 145.581C149.773 145.6 150.095 145.753 150.326 146.006C150.557 146.259 150.679 146.592 150.666 146.934Z" fill="white"/>
</g>
<path d="M145.073 58.1113C145.503 57.9248 145.867 57.6163 146.121 57.2245C146.375 56.8327 146.507 56.375 146.501 55.9087C146.517 55.6051 146.471 55.3015 146.365 55.0163C146.259 54.7311 146.096 54.4703 145.886 54.2498C145.676 54.0293 145.423 53.8537 145.142 53.7337C144.862 53.6137 144.56 53.5518 144.254 53.5518C143.949 53.5518 143.647 53.6137 143.366 53.7337C143.086 53.8537 142.833 54.0293 142.623 54.2498C142.413 54.4703 142.25 54.7311 142.144 55.0163C142.038 55.3015 141.992 55.6051 142.008 55.9087C141.998 56.3796 142.129 56.8429 142.385 57.2394C142.64 57.636 143.008 57.9481 143.442 58.1359C139.981 58.6589 140.142 62.3996 140.142 62.3996L148.318 62.4365C148.318 62.4365 148.503 58.6281 145.073 58.1113Z" fill="#58968B"/>
<path opacity="0.1" d="M145.073 58.1113C145.503 57.9248 145.867 57.6163 146.121 57.2245C146.375 56.8327 146.507 56.375 146.501 55.9087C146.517 55.6051 146.471 55.3015 146.365 55.0163C146.259 54.7311 146.096 54.4703 145.886 54.2498C145.676 54.0293 145.423 53.8537 145.142 53.7337C144.862 53.6137 144.56 53.5518 144.254 53.5518C143.949 53.5518 143.647 53.6137 143.366 53.7337C143.086 53.8537 142.833 54.0293 142.623 54.2498C142.413 54.4703 142.25 54.7311 142.144 55.0163C142.038 55.3015 141.992 55.6051 142.008 55.9087C141.998 56.3796 142.129 56.8429 142.385 57.2394C142.64 57.636 143.008 57.9481 143.442 58.1359C139.981 58.6589 140.142 62.3996 140.142 62.3996L148.318 62.4365C148.318 62.4365 148.503 58.6281 145.073 58.1113Z" fill="black"/>
<path d="M158.377 64.8525L129.216 64.7207L129.2 68.1907L158.361 68.3225L158.377 64.8525Z" fill="#58968B"/>
<path opacity="0.2" d="M158.377 64.8525L129.216 64.7207L129.2 68.1907L158.361 68.3225L158.377 64.8525Z" fill="white"/>
<path d="M43.8968 38.0365L43.6063 38.0365L42.7659 38.0981C42.3111 38.1253 41.8588 38.1849 41.4126 38.2765C41.1469 38.3318 40.8502 38.3503 40.5536 38.4364L39.5958 38.701C37.9653 39.2015 36.4272 39.962 35.0414 40.9528C33.2118 42.2778 31.6831 43.9716 30.555 45.9241C29.8918 47.0497 29.365 48.2496 28.9854 49.4987C28.5857 50.8538 28.3553 52.2527 28.2994 53.6639C28.2625 54.4084 28.2749 55.1545 28.3365 55.8973C28.3365 56.2726 28.4415 56.6479 28.491 57.0294C28.5326 57.4139 28.6049 57.7945 28.7073 58.1676C29.263 60.6364 30.3905 62.9419 31.9998 64.8999C33.6092 66.8579 35.6559 68.4144 37.9767 69.4452C39.6575 70.1635 41.4572 70.5661 43.285 70.6326C45.1732 70.7334 47.0629 70.4638 48.8467 69.8389L49.3905 69.6359L49.4646 69.6359L49.5264 69.6667L57.3189 73.6104L57.0903 73.8073C56.2561 71.2356 55.4527 68.7376 54.6741 66.3505L54.6741 66.2582L54.6617 66.1597C56.5536 64.2653 57.9572 61.9433 58.7526 59.3919C59.4751 57.0602 59.6859 54.6011 59.3706 52.1812C58.8592 48.1538 56.88 44.4536 53.8089 41.7834C52.6484 40.8088 51.3619 39.9935 49.9837 39.3593C48.943 38.9092 47.8577 38.5689 46.7456 38.3442L45.5097 38.135L44.6136 38.0734L44.0698 38.0304L43.8844 38.0304C43.946 38.0236 44.0082 38.0236 44.0698 38.0304L44.6198 38.0304L45.522 38.0673L46.758 38.2519C47.8809 38.4638 48.9785 38.7917 50.0332 39.2301C52.6072 40.3895 54.8404 42.1854 56.5203 44.447C58.2001 46.7085 59.2707 49.3605 59.6301 52.1504C59.9712 54.6077 59.7751 57.1093 59.0554 59.4842C58.253 62.0879 56.828 64.4588 54.9027 66.3935L54.946 66.2336C55.7184 68.6207 56.528 71.1125 57.3684 73.6843L57.492 74.0596L57.1336 73.8812L49.3411 69.9497L49.477 69.9497L48.9208 70.1527C45.2997 71.3738 41.3541 71.2271 37.8346 69.7405C34.581 68.321 31.8864 65.876 30.1657 62.782C29.3576 61.362 28.7681 59.8294 28.4168 58.2353C28.3209 57.8524 28.2487 57.4641 28.2005 57.0724C28.1573 56.6848 28.0708 56.3034 28.0522 55.9219C27.9958 55.1665 27.9855 54.4083 28.0213 53.6516C28.0839 52.2166 28.3246 50.7948 28.7382 49.4187C29.1334 48.1548 29.6747 46.9407 30.3511 45.801C31.5062 43.8326 33.0667 42.13 34.9302 40.8052C36.3389 39.8134 37.9029 39.0608 39.5587 38.578L40.5289 38.3257C40.8317 38.2457 41.1469 38.2272 41.394 38.178C41.8445 38.0919 42.3012 38.0425 42.7597 38.0304L43.6063 37.9996C43.7043 38.001 43.8017 38.0134 43.8968 38.0365Z" fill="#58968B"/>
<path d="M47.419 52.3963L46.2757 52.3963L43.8039 48.9386L43.8039 46.6683C43.8039 46.6683 42.0365 46.5638 42.2466 49.5354C42.4567 52.5071 42.2466 51.7503 42.2466 51.7503C42.2466 51.7503 38.4956 51.7503 38.1866 52.0887C37.8776 52.4271 37.8591 56.0325 37.8158 58.0444C37.7921 58.5293 37.9319 59.0083 38.2129 59.4052C38.494 59.802 38.9001 60.094 39.3669 60.2347C39.4984 60.2677 39.6331 60.2863 39.7686 60.29C40.7079 60.29 45.4847 59.5333 45.4847 59.5333L47.4561 59.5333L47.419 52.3963Z" fill="#58968B"/>
<path d="M50.6885 51.775L49.984 59.5518L48.0312 59.5518L48.0312 51.935L50.6885 51.775Z" fill="#58968B"/>
<path d="M78.6483 239.128L78.6483 232.28L66.9915 232.2L66.8927 242.544L67.615 242.6C70.8467 242.816 83.9786 243.168 86.1381 242.432C88.5409 241.648 78.6483 239.128 78.6483 239.128Z" fill="#58968B"/>
<path d="M78.524 241.089C78.4286 241.012 78.524 240.515 78.7515 239.985C78.979 239.455 79.2873 239.235 79.3607 239.345C79.434 239.455 79.2799 239.875 79.0598 240.327C78.8396 240.78 78.6194 241.155 78.524 241.089Z" fill="#263238"/>
<path d="M79.4291 241.093C79.3283 241.093 79.3748 240.563 79.6152 240.061C79.8557 239.559 80.1504 239.246 80.2434 239.331C80.3365 239.417 80.1814 239.833 79.9643 240.278C79.7471 240.724 79.5299 241.14 79.4291 241.093Z" fill="#263238"/>
<path d="M70.4479 241.986C70.3996 241.986 70.2228 241.826 69.9494 241.488C69.6238 241.053 69.2633 240.651 68.8721 240.288C68.4838 239.952 68.0244 239.732 67.5375 239.648C67.1597 239.594 66.9185 239.648 66.8943 239.585C66.8702 239.523 67.1034 239.345 67.5455 239.319C68.1301 239.298 68.7015 239.513 69.1535 239.923C69.5776 240.307 69.9369 240.771 70.2147 241.293C70.3996 241.684 70.4961 241.951 70.4479 241.986Z" fill="#263238"/>
<path d="M106.292 239.155L106.292 232.28L94.6326 232.2L94.5413 242.472L95.2639 242.536C98.481 242.753 111.616 243.21 113.791 242.472C116.179 241.685 106.292 239.155 106.292 239.155Z" fill="#58968B"/>
<path d="M106.17 241.089C106.081 241.012 106.17 240.515 106.398 239.985C106.626 239.455 106.935 239.235 107.009 239.345C107.082 239.455 106.935 239.875 106.707 240.327C106.479 240.78 106.265 241.155 106.17 241.089Z" fill="#263238"/>
<path d="M107.076 241.093C106.975 241.093 107.03 240.563 107.264 240.061C107.497 239.559 107.809 239.246 107.895 239.331C107.981 239.417 107.833 239.833 107.614 240.278C107.396 240.724 107.186 241.14 107.076 241.093Z" fill="#263238"/>
<path d="M98.1021 241.986C98.066 241.986 97.9275 241.826 97.7288 241.488C97.481 241.055 97.2091 240.654 96.9159 240.288C96.6256 239.951 96.2812 239.73 95.9162 239.648C95.6393 239.594 95.4526 239.648 95.4345 239.585C95.4164 239.523 95.5911 239.345 95.9223 239.319C96.3601 239.298 96.7881 239.513 97.1266 239.923C97.4459 240.304 97.7153 240.769 97.9215 241.293C98.06 241.684 98.1322 241.951 98.1021 241.986Z" fill="#263238"/>
<path d="M147.993 67.8955C147.698 67.5945 146.968 67.7414 146.968 67.7414C147.041 67.3187 147.041 66.8866 146.968 66.4639C146.835 66.0528 145.906 66.1336 145.906 66.1336C145.866 65.7847 145.866 65.4325 145.906 65.0837C145.91 65.0075 145.891 64.9318 145.852 64.8664C145.812 64.801 145.754 64.7488 145.685 64.7166C145.245 64.5382 144.773 64.4531 144.298 64.467C143.73 64.0559 146.031 60.8549 146.887 59.8271C147.742 58.7993 147.587 57.999 146.828 57.999C146.304 57.999 143.62 61.0825 142.794 62.1177C141.968 63.1529 139.778 66.0308 139.704 63.7328C139.631 61.4349 138.701 59.7023 138.119 59.4013C137.536 59.1003 136.917 59.8051 137.234 60.4438C137.512 61.1672 137.686 61.9259 137.75 62.6977C137.83 63.3169 137.803 63.9452 137.669 64.5551C137.432 65.6873 137.099 66.7974 136.674 67.8735L136.615 67.8735C136.615 67.8735 120.525 83.2322 119.36 84.3334C118.32 85.3172 97.4072 83.1661 93.2115 82.7256C91.7857 82.5179 90.3459 82.4197 88.905 82.4319C87.0837 82.5127 86.7666 82.7623 84.9452 82.7917C80.3639 82.8386 75.7932 83.2387 71.2739 83.9884C69.2274 84.3348 67.3157 85.2342 65.7475 86.5884C64.1792 87.9426 63.0147 89.6996 62.3809 91.6677C58.1556 104.809 48.5916 135.916 46.8956 153.389C45.6181 155.692 44.4661 158.062 43.4445 160.488C42.2573 163.704 42.5449 163.814 42.9431 163.887C44.0197 164.085 45.2438 158.315 45.701 159.71C46.1582 161.105 43.3782 166.589 44.5064 166.75C45.9812 166.956 47.1536 160.877 47.2937 160.393C47.4338 159.908 48.1639 160.062 48.0311 160.517C47.8173 161.163 45.7452 168.013 47.1905 168.233C47.9869 168.351 48.0754 166.905 48.0754 166.905C48.0754 166.905 49.5502 160.349 50.2212 160.473C50.8922 160.598 50.177 164.482 49.8378 165.767C49.4986 167.051 49.9779 167.72 50.6637 167.396C51.1356 167.184 52.2712 163.256 52.5735 161.971C52.8758 160.686 53.6575 157.155 54.6972 159.211C55.7369 161.266 57.315 162.448 57.9639 162.47C58.1083 162.452 58.2441 162.392 58.3541 162.297C58.4641 162.202 58.5434 162.077 58.5821 161.937C58.6207 161.797 58.617 161.649 58.5712 161.511C58.5255 161.374 58.4399 161.253 58.3252 161.163C57.7671 160.621 57.288 160.003 56.902 159.328C56.558 158.802 56.3085 158.221 56.1646 157.61C55.8675 156.392 55.6946 155.148 55.6485 153.895L55.5305 153.161C57.1822 145.019 61.9385 121.122 68.8036 105.859L71.6205 111.63L72.8445 115.895L65.3378 134.352L97.3556 133.933L92.5699 115.616L98.3732 96.5279C104.648 96.6673 120.761 96.8949 123.445 95.6909C126.822 94.2226 144.298 72.2565 144.298 72.2565C145.439 71.3774 146.529 70.4362 147.565 69.4373C147.565 69.4373 148.634 68.593 147.993 67.8955Z" fill="#FFBE9D"/>
<path d="M63.9377 120.755C64.8668 117.598 69.6378 101.99 69.6378 101.99C69.6378 101.99 71.9827 114.713 71.3633 116.247C70.7942 117.559 70.121 118.823 69.3502 120.028C63.9377 128.236 64.653 132.34 64.653 132.34L97.3491 131.349C97.4229 126.797 94.7166 116.21 94.1562 114.522C93.5958 112.833 95.4614 107.305 95.4614 107.305C95.4614 107.305 99.1484 103.568 99.0157 101.645C98.9456 99.9167 98.731 98.1977 98.3741 96.5054L118.284 97.2396L117.657 83.7971L89.0608 80.9485C88.0727 83.753 79.0617 82.4168 79.0617 82.4168C69.3428 82.7325 68.7381 84.5165 64.6972 87.6441C60.6563 90.7716 53.9828 117.576 53.9828 117.576L63.9377 120.755Z" fill="#86949A"/>
<path d="M83.2794 117.576C82.7101 117.676 82.1305 117.706 81.5539 117.664C80.4921 117.664 79.0173 117.591 77.4024 117.429C75.7875 117.268 74.3274 117.04 73.2877 116.835C72.7144 116.761 72.1523 116.618 71.6138 116.409C72.1906 116.405 72.7662 116.459 73.3319 116.57C74.379 116.703 75.8317 116.886 77.4392 117.048C79.0468 117.209 80.5068 117.319 81.5613 117.393C82.1387 117.397 82.7143 117.458 83.2794 117.576Z" fill="#263238"/>
<path d="M85.5139 114.809C84.9464 115.082 84.3469 115.284 83.7294 115.411C82.2623 115.801 80.7689 116.086 79.2608 116.262C77.751 116.439 76.2309 116.513 74.711 116.483C74.0817 116.502 73.4525 116.443 72.838 116.306C73.4587 116.224 74.0851 116.192 74.711 116.211C75.8687 116.174 77.4615 116.086 79.2165 115.881C80.9715 115.675 82.5348 115.389 83.6409 115.146C84.2553 114.985 84.8816 114.872 85.5139 114.809Z" fill="#263238"/>
<path d="M96.514 102.46C96.5034 103.02 96.4267 103.577 96.2854 104.119C96.1011 105.132 95.7988 106.527 95.4227 108.062C95.0466 109.596 94.6853 110.998 94.3608 111.953C94.2347 112.5 94.0416 113.031 93.7857 113.531C93.8261 112.973 93.93 112.421 94.0954 111.887L95.0466 107.966C95.4079 106.498 95.7398 105.206 96.02 104.061C96.1228 103.51 96.2886 102.973 96.514 102.46Z" fill="#263238"/>
<path d="M64.3055 118.883C62.6004 118.616 60.9172 118.226 59.2691 117.715C57.5863 117.324 55.9349 116.808 54.3285 116.174C57.7176 116.827 61.0526 117.733 64.3055 118.883Z" fill="#263238"/>
<path d="M98.7341 96.3444C98.4535 96.3917 98.1668 96.3917 97.8861 96.3444C97.1159 96.2657 96.3596 96.0855 95.637 95.8084C94.5535 95.3997 93.5539 94.7976 92.6874 94.0317C91.6328 93.0816 90.8105 91.9038 90.2835 90.5885C89.7593 89.2738 89.5351 87.8594 89.6272 86.4478C89.6623 85.2858 90.0113 84.1547 90.6375 83.1735C91.0815 82.5167 91.741 82.034 92.5031 81.8079C92.7065 81.7486 92.918 81.7213 93.1299 81.7272C93.2774 81.7272 93.3511 81.7272 93.3511 81.7272C93.3511 81.7272 93.0488 81.7272 92.5473 81.9181C91.8429 82.184 91.2466 82.6744 90.8513 83.313C89.8485 84.8841 89.5682 87.7179 90.6375 90.4343C91.1389 91.6958 91.9175 92.8296 92.916 93.7528C93.7402 94.5051 94.6881 95.111 95.7182 95.5441C96.6917 95.9178 97.7029 96.1861 98.7341 96.3444Z" fill="#263238"/>
<path d="M115.923 96.9824C115.729 94.7316 115.667 92.4714 115.739 90.2135C115.681 87.9575 115.75 85.7001 115.945 83.4518C116.134 85.7005 116.193 87.9581 116.122 90.2135C116.18 92.4717 116.113 94.7314 115.923 96.9824Z" fill="#263238"/>
<path d="M88.8691 81.7787C88.9502 80.1415 89.1198 78.2841 89.1198 78.2841C89.1198 78.2841 93.1903 77.8436 93.4336 73.6589C93.6769 69.4741 93.4336 59.8199 93.4336 59.8199L86.0228 56.061L77.8746 62.4702L79.106 83.3938L86.6127 83.8637C86.8991 83.8775 87.1854 83.8342 87.4548 83.7363C87.7242 83.6384 87.9712 83.488 88.1814 83.2938C88.3916 83.0995 88.5607 82.8655 88.6788 82.6053C88.7969 82.3451 88.8616 82.0641 88.8691 81.7787Z" fill="#FFBE9D"/>
<path d="M89.5984 70.3479C89.5984 70.3479 89.5984 70.4213 89.5394 70.5241C89.4822 70.5926 89.4098 70.6468 89.3279 70.6825C89.2459 70.7181 89.1568 70.7343 89.0675 70.7297C88.5955 70.7297 88.1384 70.1864 87.9761 69.555C87.8993 69.2489 87.8993 68.9287 87.9761 68.6226C87.9919 68.4892 88.0406 68.3618 88.1178 68.2517C88.1949 68.1415 88.2983 68.0521 88.4186 67.9913C88.5177 67.9505 88.6291 67.9505 88.7283 67.9913C88.8018 68.0276 88.8614 68.0869 88.8979 68.1601C88.9495 68.2849 88.8979 68.3584 88.8979 68.3584C88.8979 68.3584 88.8979 68.2849 88.8241 68.2042C88.7837 68.1541 88.7271 68.1194 88.664 68.106C88.6008 68.0926 88.535 68.1014 88.4776 68.1308C88.3887 68.1888 88.315 68.2669 88.2625 68.3588C88.2099 68.4507 88.18 68.5537 88.1752 68.6594C88.1132 68.9324 88.1132 69.2159 88.1752 69.489C88.3227 70.0543 88.7209 70.5241 89.0748 70.5608C89.2136 70.5784 89.3537 70.5416 89.4657 70.4581C89.5542 70.3993 89.5836 70.3406 89.5984 70.3479Z" fill="#EB996E"/>
<path d="M95.9618 57.558C95.394 55.6345 93.3366 54.6801 91.4636 54.1441C88.6173 53.3439 85.5276 52.9842 82.7403 54.0046C79.9529 55.0251 76.6051 56.8238 76.6051 59.8779C74.9607 59.7384 74.0169 61.1774 73.3679 62.9541C72.9563 64.0374 72.7078 65.1755 72.6306 66.3312C72.4241 70.3397 71.3032 75.8753 68.6855 78.812C67.2475 80.4491 65.1681 81.5798 64.3275 83.6207C63.5901 85.3901 63.9735 87.4898 63.2877 89.2738C62.6757 90.8596 61.3262 91.9755 60.3381 93.3557C58.2292 96.3437 58.0817 100.58 59.6007 103.92C60.3998 105.552 61.5237 107.006 62.9041 108.192C64.2845 109.378 65.8927 110.273 67.631 110.821C71.078 111.865 74.7533 111.9 78.22 110.924C80.8178 110.306 83.2408 109.108 85.3064 107.422C87.4176 105.678 88.8582 103.261 89.3842 100.58C89.9004 97.5771 89.0597 94.5377 88.433 91.557C86.4715 82.1304 87.0319 81.6458 89.5095 72.902C89.5685 72.7478 89.598 72.5863 89.6423 72.4321C89.6865 72.2779 89.7086 72.2045 89.7381 72.0871C89.8073 71.7436 89.8468 71.3948 89.8561 71.0445C89.4927 71.18 89.0978 71.2085 88.7186 71.1265C88.3393 71.0444 87.9919 70.8554 87.7177 70.582C87.4422 70.2942 87.2501 69.9374 87.1618 69.5496C87.0736 69.1619 87.0924 68.7575 87.2163 68.3795C87.389 67.9654 87.6479 67.5923 87.9757 67.2849C88.3036 66.9774 88.6932 66.7425 89.1187 66.5955C89.9372 66.2505 90.8147 66.0816 91.6185 65.7072C93.3219 64.8996 94.5017 63.2257 95.3055 61.4711C95.9783 60.2836 96.2105 58.8986 95.9618 57.558Z" fill="#263238"/>
<path d="M89.894 70.5239C90.0498 70.7531 90.1785 70.9994 90.2774 71.258C90.4987 71.7206 90.7936 72.374 91.1181 73.1228L91.1844 73.2697L91.0222 73.2697L90.2848 73.3284C89.7686 73.3651 89.3409 73.4238 88.81 73.4238C88.7663 73.4141 88.7259 73.3935 88.6923 73.3639C88.6588 73.3344 88.6333 73.2969 88.6183 73.255C88.6039 73.1872 88.6039 73.1172 88.6183 73.0494C88.6183 72.9319 88.6625 72.8512 88.6846 72.7557L88.8174 72.2345C88.8834 71.8842 88.9873 71.5421 89.1271 71.214C89.1136 71.5709 89.0617 71.9253 88.9722 72.2712L88.869 72.7924C88.8321 72.9686 88.7657 73.2329 88.869 73.2183C89.2377 73.2183 89.7612 73.1375 90.2479 73.1008L90.9853 73.0421L90.8895 73.1962C90.5724 72.4621 90.3069 71.7793 90.1521 71.3021C90.0311 71.0555 89.9443 70.7937 89.894 70.5239Z" fill="#58968B"/>
<path d="M64.8994 132.54L97.3688 131.669L111.487 180.283L108.888 236.04L91.7009 236.04L93.8465 181.47L81.2879 147.626L83.2064 238.208L65.8586 238.428L64.0279 153.292C63.9547 150.924 63.0687 145.587 63.3982 143.239L64.8994 132.54Z" fill="#263238"/>
<path d="M85.491 150.283C84.956 150.322 84.4183 150.292 83.8909 150.195C82.9027 150.078 81.5533 149.872 80.0711 149.571C78.589 149.27 77.2617 148.947 76.3104 148.675C75.7839 148.563 75.2736 148.385 74.7914 148.147C74.7914 148.037 77.1953 148.609 80.1449 149.197C83.0945 149.784 85.5058 150.18 85.491 150.283Z" fill="#455A64"/>
<path d="M108.812 236.204C108.812 236.443 105.014 236.648 100.339 236.648C95.6631 236.648 91.8656 236.443 91.8656 236.204C91.8656 235.964 95.6559 235.759 100.339 235.759C105.021 235.759 108.812 235.947 108.812 236.204Z" fill="#455A64"/>
<path d="M80.2588 235.759C80.205 235.759 79.9663 215.845 79.7239 191.283C79.4814 166.72 79.339 146.793 79.3891 146.793C79.4391 146.793 79.6854 166.7 79.924 191.276C80.1626 215.852 80.3166 235.759 80.2588 235.759Z" fill="#455A64"/>
<path d="M106.292 233.09C106.292 233.09 106.292 232.999 106.292 232.825L106.292 232.05C106.292 231.353 106.344 230.352 106.388 229.073C106.491 226.49 106.638 222.744 106.821 218.14C107.218 208.898 107.776 196.15 108.386 182.072C108.386 181.943 108.386 181.814 108.386 181.697L108.386 181.743C104.53 168.181 101.041 155.872 98.5072 146.967C97.266 142.53 96.2672 138.933 95.5695 136.427C95.2316 135.2 94.9746 134.238 94.7909 133.56C94.7102 133.25 94.644 132.998 94.5926 132.817C94.5687 132.732 94.5515 132.646 94.5412 132.559C94.5794 132.64 94.6089 132.725 94.6294 132.811C94.6881 132.991 94.7689 133.237 94.8644 133.547C95.0627 134.193 95.3491 135.174 95.7163 136.401L98.8231 146.908C101.379 155.807 104.904 168.084 108.812 181.659L108.812 181.71C108.812 181.827 108.812 181.956 108.812 182.091C108.158 196.163 107.563 208.905 107.13 218.153C106.902 222.751 106.711 226.483 106.579 229.079C106.505 230.371 106.447 231.353 106.41 232.05C106.41 232.379 106.366 232.638 106.358 232.825C106.348 232.915 106.325 233.004 106.292 233.09Z" fill="#455A64"/>
<path d="M100.821 186.91C99.5791 187.317 98.2996 187.599 97.0014 187.754C95.4086 188.026 94.0518 188.217 93.4398 188.246L93.4398 188.099C93.6389 188.151 93.7421 188.195 93.7421 188.224C93.7421 188.253 93.6168 188.224 93.4177 188.224L92.9678 188.224L93.4103 188.092C93.9928 187.923 95.3497 187.644 96.9351 187.358C98.2118 187.077 99.5139 186.927 100.821 186.91Z" fill="#455A64"/>
<path d="M100.497 189.032C99.3466 189.084 98.194 189.033 97.0532 188.878C95.9016 188.85 94.7545 188.725 93.6243 188.503C95.9288 188.316 98.2485 188.495 100.497 189.032Z" fill="#455A64"/>
<path opacity="0.2" d="M64.504 133.507C64.8913 134.002 65.3792 134.411 65.9357 134.705C66.4922 135 67.1049 135.175 67.7338 135.218C69.0509 135.373 70.3832 135.348 71.6936 135.144C80.1368 134.212 89.0814 133.353 97.3477 131.349C86.648 131.943 75.3511 131.745 64.6515 132.34L64.5335 133.25" fill="black"/>
<g opacity="0.2">
<path opacity="0.2" d="M75.5359 148.521L81.5604 171.823L81.1401 149.505L75.5359 148.521Z" fill="black"/>
</g>
</g>
<defs>
<clipPath id="clip0_1_10486">
<rect width="237" height="244" fill="white" transform="translate(237 244) rotate(-180)"/>
</clipPath>
</defs>
</svg>
