<svg width="24" height="25" viewBox="0 0 24 25" fill="none" xmlns="http://www.w3.org/2000/svg">
<path d="M23.1428 6.50001H18.8571V1.35716C18.8571 0.883755 18.4734 0.5 18 0.5H0.857159C0.383755 0.5 0 0.883755 0 1.35716V21.0714C0 22.965 1.53502 24.5 3.42859 24.5H20.5714C22.465 24.5 24 22.965 24 21.0714V7.35712C24 6.88377 23.6162 6.50001 23.1428 6.50001ZM6.85712 4.78569H12C12.4734 4.78569 12.8571 5.16945 12.8571 5.64285C12.8571 6.11626 12.4734 6.50001 12 6.50001H6.85712C6.38372 6.50001 5.99996 6.11626 5.99996 5.64285C5.99996 5.16945 6.38377 4.78569 6.85712 4.78569ZM14.5714 21.0714H4.28569C3.81229 21.0714 3.42854 20.6877 3.42854 20.2143C3.42854 19.7409 3.81229 19.3571 4.28569 19.3571H14.5714C15.0448 19.3571 15.4286 19.7409 15.4286 20.2143C15.4286 20.6877 15.0448 21.0714 14.5714 21.0714ZM14.5714 17.6428H4.28569C3.81229 17.6428 3.42854 17.2591 3.42854 16.7857C3.42854 16.3123 3.81229 15.9285 4.28569 15.9285H14.5714C15.0448 15.9285 15.4286 16.3123 15.4286 16.7857C15.4286 17.2591 15.0448 17.6428 14.5714 17.6428ZM14.5714 14.2143H4.28569C3.81229 14.2143 3.42854 13.8305 3.42854 13.3571C3.42854 12.8837 3.81229 12.5 4.28569 12.5H14.5714C15.0448 12.5 15.4286 12.8837 15.4286 13.3571C15.4286 13.8305 15.0448 14.2143 14.5714 14.2143ZM14.5714 10.7857H4.28569C3.81229 10.7857 3.42854 10.402 3.42854 9.92855C3.42854 9.45514 3.81229 9.07139 4.28569 9.07139H14.5714C15.0448 9.07139 15.4286 9.45514 15.4286 9.92855C15.4286 10.402 15.0448 10.7857 14.5714 10.7857ZM22.2857 21.0714C22.2857 22.0182 21.5182 22.7857 20.5714 22.7857C19.6247 22.7857 18.8571 22.0182 18.8571 21.0714V8.21428H22.2857V21.0714H22.2857Z" />
</svg>
