<svg width="24" height="25" viewBox="0 0 24 25" fill="none" xmlns="http://www.w3.org/2000/svg">
<path d="M11.279 13.2616V3.40329C11.2808 3.32765 11.2675 3.25242 11.2399 3.18195C11.2124 3.11149 11.1711 3.04719 11.1186 2.99278C11.066 2.93838 11.0031 2.89494 10.9337 2.865C10.8642 2.83506 10.7894 2.81921 10.7138 2.81836C2.72855 3.16011 -2.91041 12.3218 3.32005 20.8262L3.67495 21.1811C12.1203 27.4116 21.3082 21.7923 21.7157 13.8531C21.7158 13.6996 21.6562 13.552 21.5495 13.4417C21.4428 13.3313 21.2973 13.2667 21.1439 13.2616H11.2856H11.279Z" />
<path d="M12.9886 2.29979V11.5535H22.1896C22.3404 11.5543 22.4898 11.5254 22.6293 11.4683C22.7688 11.4112 22.8956 11.3271 23.0025 11.2209C23.1094 11.1146 23.1942 10.9882 23.2521 10.8491C23.31 10.7099 23.3398 10.5606 23.3398 10.4099C23.3398 10.3639 23.3398 10.3113 23.3398 10.2653C23.0473 7.95986 21.9993 5.81625 20.3596 4.16941C18.7199 2.52258 16.5809 1.4653 14.2767 1.16279C14.1265 1.14443 13.9741 1.1559 13.8284 1.19653C13.6826 1.23716 13.5463 1.30616 13.4272 1.39958C13.3082 1.49299 13.2087 1.60898 13.1346 1.7409C13.0604 1.87282 13.013 2.01807 12.9951 2.16834C12.9897 2.21193 12.9875 2.25587 12.9886 2.29979Z" />
</svg>
